REM DIRINDEX 1\3,1\4,1\5,1\6,1\2\7,1\2\8,1\2\9,1\10
REM DIRNAME cjc056,folder01,folder02,folder03,folder04,folder05,folder06,folder07,folder08,folder09
TITLE ""
FILE "2-47 Level 6-939-949.mp3" MP3
  TRACK 01 AUDIO
    TITLE "0:"
    INDEX 01 00:00:00
  TRACK 02 AUDIO
    TITLE "7:cjc056_3219"
    INDEX 01 00:00:07
  TRACK 03 AUDIO
    TITLE "0:"
    INDEX 01 00:01:05
  TRACK 04 AUDIO
    TITLE "8:cjc056_3220"
    INDEX 01 00:01:17
  TRACK 05 AUDIO
    TITLE "0:"
    INDEX 01 00:02:14
  TRACK 06 AUDIO
    TITLE "9:cjc056_3221"
    INDEX 01 00:02:28
  TRACK 07 AUDIO
    TITLE "0:"
    INDEX 01 00:04:44
  TRACK 08 AUDIO
    TITLE "7:cjc056_3222"
    INDEX 01 00:05:18
  TRACK 09 AUDIO
    TITLE "0:"
    INDEX 01 00:06:31
  TRACK 10 AUDIO
    TITLE "8:cjc056_3223"
    INDEX 01 00:06:45
  TRACK 11 AUDIO
    TITLE "0:"
    INDEX 01 00:07:51
  TRACK 12 AUDIO
    TITLE "9:cjc056_3224"
    INDEX 01 00:07:54
  TRACK 13 AUDIO
    TITLE "0:"
    INDEX 01 00:11:33
  TRACK 14 AUDIO
    TITLE "7:cjc056_3225"
    INDEX 01 00:12:09
  TRACK 15 AUDIO
    TITLE "0:"
    INDEX 01 00:13:08
  TRACK 16 AUDIO
    TITLE "8:cjc056_3226"
    INDEX 01 00:13:22
  TRACK 17 AUDIO
    TITLE "0:"
    INDEX 01 00:14:35
  TRACK 18 AUDIO
    TITLE "9:cjc056_3227"
    INDEX 01 00:14:49
  TRACK 19 AUDIO
    TITLE "0:"
    INDEX 01 00:17:45
  TRACK 20 AUDIO
    TITLE "7:cjc056_3228"
    INDEX 01 00:18:17
  TRACK 21 AUDIO
    TITLE "0:"
    INDEX 01 00:19:26
  TRACK 22 AUDIO
    TITLE "8:cjc056_3229"
    INDEX 01 00:19:38
  TRACK 23 AUDIO
    TITLE "0:"
    INDEX 01 00:20:49
  TRACK 24 AUDIO
    TITLE "9:cjc056_3230"
    INDEX 01 00:20:63
  TRACK 25 AUDIO
    TITLE "0:"
    INDEX 01 00:24:08
  TRACK 26 AUDIO
    TITLE "7:cjc056_3231"
    INDEX 01 00:24:61
  TRACK 27 AUDIO
    TITLE "0:"
    INDEX 01 00:26:13
  TRACK 28 AUDIO
    TITLE "8:cjc056_3232"
    INDEX 01 00:26:28
  TRACK 29 AUDIO
    TITLE "0:"
    INDEX 01 00:27:45
  TRACK 30 AUDIO
    TITLE "9:cjc056_3233"
    INDEX 01 00:27:57
  TRACK 31 AUDIO
    TITLE "0:"
    INDEX 01 00:30:54
  TRACK 32 AUDIO
    TITLE "7:cjc056_3234"
    INDEX 01 00:31:31
  TRACK 33 AUDIO
    TITLE "0:"
    INDEX 01 00:32:48
  TRACK 34 AUDIO
    TITLE "8:cjc056_3235"
    INDEX 01 00:32:60
  TRACK 35 AUDIO
    TITLE "0:"
    INDEX 01 00:34:51
  TRACK 36 AUDIO
    TITLE "9:cjc056_3236"
    INDEX 01 00:34:59
  TRACK 37 AUDIO
    TITLE "0:"
    INDEX 01 00:37:08
  TRACK 38 AUDIO
    TITLE "7:cjc056_3237"
    INDEX 01 00:37:57
  TRACK 39 AUDIO
    TITLE "0:"
    INDEX 01 00:38:49
  TRACK 40 AUDIO
    TITLE "8:cjc056_3238"
    INDEX 01 00:38:63
  TRACK 41 AUDIO
    TITLE "0:"
    INDEX 01 00:40:60
  TRACK 42 AUDIO
    TITLE "9:cjc056_3239"
    INDEX 01 00:41:00
  TRACK 43 AUDIO
    TITLE "0:"
    INDEX 01 00:43:21
  TRACK 44 AUDIO
    TITLE "7:cjc056_3240"
    INDEX 01 00:43:74
  TRACK 45 AUDIO
    TITLE "0:"
    INDEX 01 00:45:10
  TRACK 46 AUDIO
    TITLE "8:cjc056_3241"
    INDEX 01 00:45:22
  TRACK 47 AUDIO
    TITLE "0:"
    INDEX 01 00:48:04
  TRACK 48 AUDIO
    TITLE "9:cjc056_3242"
    INDEX 01 00:48:18
  TRACK 49 AUDIO
    TITLE "0:"
    INDEX 01 00:50:64
  TRACK 50 AUDIO
    TITLE "7:cjc056_3243"
    INDEX 01 00:51:38
  TRACK 51 AUDIO
    TITLE "0:"
    INDEX 01 00:52:49
  TRACK 52 AUDIO
    TITLE "8:cjc056_3244"
    INDEX 01 00:52:61
  TRACK 53 AUDIO
    TITLE "0:"
    INDEX 01 00:55:36
  TRACK 54 AUDIO
    TITLE "9:cjc056_3245"
    INDEX 01 00:55:51
  TRACK 55 AUDIO
    TITLE "0:"
    INDEX 01 00:58:42
  TRACK 56 AUDIO
    TITLE "7:cjc056_3246"
    INDEX 01 00:59:18
  TRACK 57 AUDIO
    TITLE "0:"
    INDEX 01 01:00:37
  TRACK 58 AUDIO
    TITLE "8:cjc056_3247"
    INDEX 01 01:00:49
  TRACK 59 AUDIO
    TITLE "0:"
    INDEX 01 01:03:55
  TRACK 60 AUDIO
    TITLE "9:cjc056_3248"
    INDEX 01 01:03:69
  TRACK 61 AUDIO
    TITLE "0:"
    INDEX 01 01:06:57
  TRACK 62 AUDIO
    TITLE "7:cjc056_3249"
    INDEX 01 01:07:33
  TRACK 63 AUDIO
    TITLE "0:"
    INDEX 01 01:08:48
  TRACK 64 AUDIO
    TITLE "8:cjc056_3250"
    INDEX 01 01:08:60
  TRACK 65 AUDIO
    TITLE "0:"
    INDEX 01 01:11:21
  TRACK 66 AUDIO
    TITLE "9:cjc056_3251"
    INDEX 01 01:11:33
  TRACK 67 AUDIO
    TITLE "0:"
    INDEX 01 01:15:19
